<svg data-v-423bf9ae="" xmlns="http://www.w3.org/2000/svg" viewBox="0 0 501 90" class="iconLeft"><!----><!----><!----><g data-v-423bf9ae="" id="95798091-63fc-4a3b-87f7-54a793752e06" fill="black" transform="matrix(5.347593910151634,0,0,5.347593910151634,136.41332995185923,1.3101613265150718)"><path d="M3.38 4.98L3.38 13.64L1.33 13.64L1.33 3.63L4.63 3.63L4.63 3.63Q5.56 3.63 6.30 3.85L6.30 3.85L6.30 3.85Q7.03 4.06 7.55 4.47L7.55 4.47L7.55 4.47Q8.07 4.87 8.34 5.46L8.34 5.46L8.34 5.46Q8.61 6.05 8.61 6.79L8.61 6.79L8.61 6.79Q8.61 7.59 8.31 8.24L8.31 8.24L8.31 8.24Q8.01 8.88 7.51 9.33L7.51 9.33L7.51 9.33Q7.01 9.78 6.35 10.01L6.35 10.01L6.35 10.01Q5.69 10.25 4.98 10.25L4.98 10.25L4.98 10.25Q4.88 10.25 4.78 10.25L4.78 10.25L4.78 10.25Q4.68 10.25 4.55 10.23L4.55 10.23L4.66 8.98L4.66 8.98Q4.73 8.99 4.81 8.99L4.81 8.99L4.81 8.99Q4.89 9.00 4.97 9.00L4.97 9.00L4.97 9.00Q5.35 9.00 5.65 8.85L5.65 8.85L5.65 8.85Q5.95 8.71 6.16 8.45L6.16 8.45L6.16 8.45Q6.36 8.20 6.48 7.83L6.48 7.83L6.48 7.83Q6.59 7.47 6.59 7.03L6.59 7.03L6.59 7.03Q6.59 6.48 6.44 6.09L6.44 6.09L6.44 6.09Q6.29 5.70 6.01 5.46L6.01 5.46L6.01 5.46Q5.74 5.21 5.34 5.09L5.34 5.09L5.34 5.09Q4.94 4.98 4.44 4.98L4.44 4.98L3.38 4.98ZM13.13 13.78L13.13 13.78L13.13 13.78Q12.23 13.78 11.56 13.49L11.56 13.49L11.56 13.49Q10.88 13.21 10.43 12.72L10.43 12.72L10.43 12.72Q9.97 12.23 9.74 11.58L9.74 11.58L9.74 11.58Q9.52 10.94 9.52 10.22L9.52 10.22L9.52 10.22Q9.52 9.39 9.81 8.67L9.81 8.67L9.81 8.67Q10.11 7.95 10.65 7.41L10.65 7.41L10.65 7.41Q11.19 6.88 11.95 6.57L11.95 6.57L11.95 6.57Q12.70 6.26 13.62 6.26L13.62 6.26L13.62 6.26Q14.51 6.26 15.18 6.55L15.18 6.55L15.18 6.55Q15.86 6.84 16.32 7.32L16.32 7.32L16.32 7.32Q16.78 7.81 17.01 8.46L17.01 8.46L17.01 8.46Q17.24 9.11 17.24 9.84L17.24 9.84L17.24 9.84Q17.24 10.68 16.94 11.40L16.94 11.40L16.94 11.40Q16.63 12.12 16.09 12.65L16.09 12.65L16.09 12.65Q15.54 13.18 14.79 13.48L14.79 13.48L14.79 13.48Q14.03 13.78 13.13 13.78ZM13.42 12.46L13.42 12.46L13.42 12.46Q13.79 12.46 14.11 12.30L14.11 12.30L14.11 12.30Q14.43 12.14 14.66 11.84L14.66 11.84L14.66 11.84Q14.90 11.54 15.02 11.11L15.02 11.11L15.02 11.11Q15.15 10.68 15.15 10.13L15.15 10.13L15.15 10.13Q15.15 9.61 15.03 9.15L15.03 9.15L15.03 9.15Q14.90 8.68 14.67 8.34L14.67 8.34L14.67 8.34Q14.44 7.99 14.10 7.79L14.10 7.79L14.10 7.79Q13.76 7.59 13.33 7.59L13.33 7.59L13.33 7.59Q12.94 7.59 12.62 7.75L12.62 7.75L12.62 7.75Q12.30 7.92 12.08 8.22L12.08 8.22L12.08 8.22Q11.85 8.53 11.73 8.97L11.73 8.97L11.73 8.97Q11.60 9.40 11.60 9.93L11.60 9.93L11.60 9.93Q11.60 10.47 11.73 10.93L11.73 10.93L11.73 10.93Q11.85 11.40 12.09 11.73L12.09 11.73L12.09 11.73Q12.33 12.07 12.66 12.26L12.66 12.26L12.66 12.26Q13.00 12.46 13.42 12.46ZM18.97 13.64L18.97 6.40L20.64 6.40L20.90 8.54L20.90 8.54Q21.01 8.35 21.11 8.15L21.11 8.15L21.11 8.15Q21.22 7.96 21.32 7.78L21.32 7.78L21.32 7.78Q21.42 7.61 21.50 7.47L21.50 7.47L21.50 7.47Q21.58 7.33 21.64 7.26L21.64 7.26L21.64 7.26Q21.78 7.05 21.95 6.86L21.95 6.86L21.95 6.86Q22.11 6.68 22.32 6.55L22.32 6.55L22.32 6.55Q22.52 6.41 22.77 6.34L22.77 6.34L22.77 6.34Q23.02 6.26 23.31 6.26L23.31 6.26L23.31 6.26Q23.51 6.26 23.73 6.31L23.73 6.31L23.73 6.31Q23.95 6.36 24.12 6.47L24.12 6.47L23.90 8.30L23.90 8.30Q23.77 8.26 23.56 8.25L23.56 8.25L23.56 8.25Q23.36 8.24 23.21 8.24L23.21 8.24L23.21 8.24Q22.83 8.24 22.50 8.34L22.50 8.34L22.50 8.34Q22.17 8.44 21.90 8.62L21.90 8.62L21.90 8.62Q21.62 8.79 21.40 9.03L21.40 9.03L21.40 9.03Q21.17 9.27 20.99 9.54L20.99 9.54L20.99 13.64L18.97 13.64ZM26.34 11.45L26.34 7.72L24.88 7.72L25.02 6.83L25.02 6.83Q25.38 6.72 25.65 6.61L25.65 6.61L25.65 6.61Q25.91 6.50 26.10 6.37L26.10 6.37L26.10 6.37Q26.30 6.23 26.44 6.07L26.44 6.07L26.44 6.07Q26.59 5.91 26.72 5.70L26.72 5.70L26.72 5.70Q26.85 5.49 26.98 5.22L26.98 5.22L26.98 5.22Q27.11 4.94 27.28 4.59L27.28 4.59L28.26 4.59L28.26 6.40L30.84 6.40L30.53 7.72L28.36 7.72L28.36 11.14L28.36 11.14Q28.36 11.81 28.71 12.08L28.71 12.08L28.71 12.08Q29.07 12.35 29.72 12.35L29.72 12.35L29.72 12.35Q30.00 12.35 30.29 12.30L30.29 12.30L30.29 12.30Q30.57 12.26 30.83 12.15L30.83 12.15L30.83 13.08L30.83 13.08Q30.33 13.43 29.75 13.61L29.75 13.61L29.75 13.61Q29.16 13.78 28.57 13.78L28.57 13.78L28.57 13.78Q28 13.78 27.58 13.62L27.58 13.62L27.58 13.62Q27.16 13.46 26.88 13.16L26.88 13.16L26.88 13.16Q26.61 12.86 26.47 12.43L26.47 12.43L26.47 12.43Q26.34 12.00 26.34 11.45L26.34 11.45ZM33.17 13.64L33.17 7.72L31.72 7.72L31.86 6.79L33.18 6.40L33.18 6.13L33.18 6.13Q33.18 5.39 33.40 4.74L33.40 4.74L33.40 4.74Q33.63 4.09 34.05 3.60L34.05 3.60L34.05 3.60Q34.48 3.12 35.11 2.84L35.11 2.84L35.11 2.84Q35.74 2.56 36.55 2.56L36.55 2.56L36.55 2.56Q36.87 2.56 37.23 2.60L37.23 2.60L37.23 2.60Q37.58 2.65 37.91 2.75L37.91 2.75L37.60 4.05L37.47 4.12L37.47 4.12Q37.27 4.01 37.03 3.95L37.03 3.95L37.03 3.95Q36.80 3.88 36.54 3.88L36.54 3.88L36.54 3.88Q36.18 3.88 35.93 4.03L35.93 4.03L35.93 4.03Q35.67 4.18 35.51 4.44L35.51 4.44L35.51 4.44Q35.34 4.71 35.27 5.08L35.27 5.08L35.27 5.08Q35.19 5.45 35.19 5.89L35.19 5.89L35.19 6.40L37.53 6.40L37.21 7.72L35.19 7.72L35.19 13.64L33.17 13.64ZM41.75 13.78L41.75 13.78L41.75 13.78Q40.86 13.78 40.19 13.49L40.19 13.49L40.19 13.49Q39.51 13.21 39.06 12.72L39.06 12.72L39.06 12.72Q38.60 12.23 38.37 11.58L38.37 11.58L38.37 11.58Q38.14 10.94 38.14 10.22L38.14 10.22L38.14 10.22Q38.14 9.39 38.44 8.67L38.44 8.67L38.44 8.67Q38.74 7.95 39.28 7.41L39.28 7.41L39.28 7.41Q39.82 6.88 40.57 6.57L40.57 6.57L40.57 6.57Q41.33 6.26 42.25 6.26L42.25 6.26L42.25 6.26Q43.13 6.26 43.81 6.55L43.81 6.55L43.81 6.55Q44.49 6.84 44.95 7.32L44.95 7.32L44.95 7.32Q45.40 7.81 45.64 8.46L45.64 8.46L45.64 8.46Q45.87 9.11 45.87 9.84L45.87 9.84L45.87 9.84Q45.87 10.68 45.56 11.40L45.56 11.40L45.56 11.40Q45.26 12.12 44.72 12.65L44.72 12.65L44.72 12.65Q44.17 13.18 43.42 13.48L43.42 13.48L43.42 13.48Q42.66 13.78 41.75 13.78ZM42.05 12.46L42.05 12.46L42.05 12.46Q42.42 12.46 42.74 12.30L42.74 12.30L42.74 12.30Q43.06 12.14 43.29 11.84L43.29 11.84L43.29 11.84Q43.52 11.54 43.65 11.11L43.65 11.11L43.65 11.11Q43.78 10.68 43.78 10.13L43.78 10.13L43.78 10.13Q43.78 9.61 43.65 9.15L43.65 9.15L43.65 9.15Q43.53 8.68 43.30 8.34L43.30 8.34L43.30 8.34Q43.07 7.99 42.73 7.79L42.73 7.79L42.73 7.79Q42.39 7.59 41.96 7.59L41.96 7.59L41.96 7.59Q41.57 7.59 41.25 7.75L41.25 7.75L41.25 7.75Q40.93 7.92 40.71 8.22L40.71 8.22L40.71 8.22Q40.48 8.53 40.36 8.97L40.36 8.97L40.36 8.97Q40.23 9.40 40.23 9.93L40.23 9.93L40.23 9.93Q40.23 10.47 40.36 10.93L40.36 10.93L40.36 10.93Q40.48 11.40 40.72 11.73L40.72 11.73L40.72 11.73Q40.95 12.07 41.29 12.26L41.29 12.26L41.29 12.26Q41.62 12.46 42.05 12.46ZM47.60 13.64L47.60 2.69L49.62 2.69L49.62 13.64L47.60 13.64ZM53.06 13.78L53.06 13.78L53.06 13.78Q52.79 13.78 52.56 13.68L52.56 13.68L52.56 13.68Q52.34 13.58 52.16 13.41L52.16 13.41L52.16 13.41Q51.99 13.23 51.89 13.00L51.89 13.00L51.89 13.00Q51.79 12.77 51.79 12.50L51.79 12.50L51.79 12.50Q51.79 12.23 51.90 11.99L51.90 11.99L51.90 11.99Q52.00 11.75 52.18 11.57L52.18 11.57L52.18 11.57Q52.36 11.40 52.59 11.30L52.59 11.30L52.59 11.30Q52.83 11.20 53.09 11.20L53.09 11.20L53.09 11.20Q53.36 11.20 53.59 11.30L53.59 11.30L53.59 11.30Q53.82 11.40 53.99 11.58L53.99 11.58L53.99 11.58Q54.17 11.75 54.27 11.99L54.27 11.99L54.27 11.99Q54.37 12.22 54.37 12.49L54.37 12.49L54.37 12.49Q54.37 12.76 54.26 13.00L54.26 13.00L54.26 13.00Q54.15 13.23 53.97 13.41L53.97 13.41L53.97 13.41Q53.79 13.58 53.56 13.68L53.56 13.68L53.56 13.68Q53.32 13.78 53.06 13.78ZM56.53 13.64L56.53 6.40L58.55 6.40L58.55 13.64L56.53 13.64ZM57.52 5.11L57.52 5.11L57.52 5.11Q57.26 5.11 57.05 5.03L57.05 5.03L57.05 5.03Q56.84 4.95 56.69 4.81L56.69 4.81L56.69 4.81Q56.53 4.67 56.45 4.48L56.45 4.48L56.45 4.48Q56.36 4.29 56.36 4.07L56.36 4.07L56.36 4.07Q56.36 3.84 56.45 3.64L56.45 3.64L56.45 3.64Q56.55 3.44 56.71 3.29L56.71 3.29L56.71 3.29Q56.88 3.14 57.10 3.06L57.10 3.06L57.10 3.06Q57.32 2.97 57.58 2.97L57.58 2.97L57.58 2.97Q57.84 2.97 58.05 3.06L58.05 3.06L58.05 3.06Q58.26 3.14 58.42 3.28L58.42 3.28L58.42 3.28Q58.57 3.42 58.66 3.62L58.66 3.62L58.66 3.62Q58.74 3.81 58.74 4.03L58.74 4.03L58.74 4.03Q58.74 4.27 58.65 4.46L58.65 4.46L58.65 4.46Q58.56 4.66 58.39 4.81L58.39 4.81L58.39 4.81Q58.23 4.95 58.01 5.03L58.01 5.03L58.01 5.03Q57.78 5.11 57.52 5.11ZM63.90 13.78L63.90 13.78L63.90 13.78Q63.01 13.78 62.33 13.49L62.33 13.49L62.33 13.49Q61.66 13.21 61.21 12.72L61.21 12.72L61.21 12.72Q60.75 12.23 60.52 11.58L60.52 11.58L60.52 11.58Q60.29 10.94 60.29 10.22L60.29 10.22L60.29 10.22Q60.29 9.39 60.59 8.67L60.59 8.67L60.59 8.67Q60.89 7.95 61.43 7.41L61.43 7.41L61.43 7.41Q61.97 6.88 62.72 6.57L62.72 6.57L62.72 6.57Q63.48 6.26 64.39 6.26L64.39 6.26L64.39 6.26Q65.28 6.26 65.96 6.55L65.96 6.55L65.96 6.55Q66.64 6.84 67.09 7.32L67.09 7.32L67.09 7.32Q67.55 7.81 67.79 8.46L67.79 8.46L67.79 8.46Q68.02 9.11 68.02 9.84L68.02 9.84L68.02 9.84Q68.02 10.68 67.71 11.40L67.71 11.40L67.71 11.40Q67.41 12.12 66.87 12.65L66.87 12.65L66.87 12.65Q66.32 13.18 65.57 13.48L65.57 13.48L65.57 13.48Q64.81 13.78 63.90 13.78ZM64.20 12.46L64.20 12.46L64.20 12.46Q64.57 12.46 64.89 12.30L64.89 12.30L64.89 12.30Q65.21 12.14 65.44 11.84L65.44 11.84L65.44 11.84Q65.67 11.54 65.80 11.11L65.80 11.11L65.80 11.11Q65.93 10.68 65.93 10.13L65.93 10.13L65.93 10.13Q65.93 9.61 65.80 9.15L65.80 9.15L65.80 9.15Q65.68 8.68 65.45 8.34L65.45 8.34L65.45 8.34Q65.21 7.99 64.88 7.79L64.88 7.79L64.88 7.79Q64.54 7.59 64.11 7.59L64.11 7.59L64.11 7.59Q63.72 7.59 63.40 7.75L63.40 7.75L63.40 7.75Q63.08 7.92 62.86 8.22L62.86 8.22L62.86 8.22Q62.63 8.53 62.50 8.97L62.50 8.97L62.50 8.97Q62.38 9.40 62.38 9.93L62.38 9.93L62.38 9.93Q62.38 10.47 62.50 10.93L62.50 10.93L62.50 10.93Q62.63 11.40 62.87 11.73L62.87 11.73L62.87 11.73Q63.10 12.07 63.44 12.26L63.44 12.26L63.44 12.26Q63.77 12.46 64.20 12.46Z"></path></g><!----><g data-v-423bf9ae="" id="27de1e8f-ab87-4b1d-a483-0deccf89ccbf" transform="matrix(3.860175764033615,0,0,3.860175764033615,0.23718777546216074,-16.421744111390325)" stroke="none" fill="black"><path d="M12.289 5.343v19.9L1 13.954V5.343h11.289m1-1H0v10.026l13.289 13.289V4.343zM31 5.343v8.612L19.711 25.243v-19.9H31m1-1H18.711v23.315L32 14.369V4.343z"></path></g><!----></svg>